# xmcd
#
# Track frame offsets:
#	150
#	14338
#	30622
#	46792
#	62295
#	77886
#	93220
#	109236
#	126412
#	143346
#	160976
#	179478
#	195167
#	207873
#	226186
#	241178
#	257885
#	274223
#	290446
#	303834
#	317652
#
# Disc length: 4413
#
# Revision: 1
# Processed by: cddbd v1.5.1PL0 Copyright (c) Steve Scherf et al.
# Submitted via: audiograbber 1.82.00
# Normalized: r0:TDELIM( - ),TSWAP
#
DISCID=14113b15
DTITLE=ST77 - SALOON TUNES77
DYEAR=2004
DGENRE=
TTITLE0=Alan Jackson - To Much Of A Good Thing
TTITLE1=Brad Johner - The Farmer's Back
TTITLE2=Deric Ruttan - I Saved Everything
TTITLE3=Diamond Rio - Can't You Tell
TTITLE4=Doc Walker - North Dakota Boy
TTITLE5=Gretchen Wilson - Here For The Party
TTITLE6=Hal Ketchum - My Love Will Not Change
TTITLE7=Keith Urban - Days Go By
TTITLE8=Kenny Rogers ft.Whitney Duncan - My World Is Over
TTITLE9=Kid Rock - Single Father
TTITLE10=Leahy - Chasing Rain
TTITLE11=Lonestar - Mr. Mom
TTITLE12=Loretta Lynn - Miss Being Mrs.
TTITLE13=Mark Chesnutt - The Lord Loves The Drinkin' Man
TTITLE14=McHayes - Tulsa Time
TTITLE15=Montgomery Gentry - You Do Your Thing
TTITLE16=Paul Brandt - Leavin'
TTITLE17=Scotty Emerick - The Watch
TTITLE18=Shannon Lawson - Just Like A Redneck
TTITLE19=Tracy Lawrence - It's All How You Look At It
TTITLE20=Trick Pony - The Bride
EXTD=
EXTT0=
EXTT1=
EXTT2=
EXTT3=
EXTT4=
EXTT5=
EXTT6=
EXTT7=
EXTT8=
EXTT9=
EXTT10=
EXTT11=
EXTT12=
EXTT13=
EXTT14=
EXTT15=
EXTT16=
EXTT17=
EXTT18=
EXTT19=
EXTT20=
PLAYORDER=
